Coordinates
version=1
nRows=14
nColumns=24
inDegrees=yes

Units are S.I. units (second, meters, Newtons, ...)
Angles are in degrees.

endheader
time	pelvis_tilt	pelvis_list	pelvis_rotation	pelvis_tx	pelvis_ty	pelvis_tz	hip_flexion_r	hip_adduction_r	hip_rotation_r	knee_angle_r	ankle_angle_r	subtalar_angle_r	mtp_angle_r	hip_flexion_l	hip_adduction_l	hip_rotation_l	knee_angle_l	ankle_angle_l	subtalar_angle_l	mtp_angle_l	lumbar_extension	lumbar_bending	lumbar_rotation
      3.41000000	     -0.28315024	     -2.03139800	     -8.77507606	     -0.78637208	      0.90883691	      0.24064931	    -10.54400953	      5.80395601	      9.05712417	    -27.78279206	     24.05368590	     -2.25000851	      0.00000000	     29.88994236	     -2.54596438	     -5.50636207	    -12.16284753	     11.36183885	     -9.26037387	      0.00000000	    -12.48103573	      0.69456533	      0.15912234
      3.41500000	     -0.33857421	     -1.76284120	     -8.76104710	     -0.77790580	      0.90767491	      0.24028191	    -10.36857851	      5.32740316	      8.36587299	    -28.87565555	     23.68677504	     -1.33859481	      0.00000000	     30.14023498	     -2.19718000	     -5.54920098	    -13.27952418	     11.05573369	     -9.46861990	      0.00000000	    -12.31849602	      0.34117021	      0.08290924
      3.42000000	     -0.39239227	     -1.44493788	     -8.72249294	     -0.76938728	      0.90656929	      0.23986407	    -10.13103997	      4.79195348	      7.62299043	    -30.05996051	     23.21129814	     -0.42576758	      0.00000000	     30.36944066	     -1.78787669	     -5.58818080	    -14.36873547	     10.63165092	     -9.65410064	      0.00000000	    -12.14420623	     -0.06785562	     -0.02411905
      3.42500000	     -0.45401308	     -1.07556313	     -8.65989900	     -0.76087407	      0.90550213	      0.23940254	     -9.80744616	      4.19823044	      6.83435528	    -31.35758694	     22.64134203	      0.48547409	      0.00000000	     30.59671164	     -1.31659001	     -5.61241791	    -15.42211987	     10.07780501	     -9.85187297	      0.00000000	    -11.95390331	     -0.53076843	     -0.16878567
      3.43000000	     -0.54530859	     -0.66791669	     -8.58830523	     -0.75242647	      0.90448086	      0.23884951	     -9.37063811	      3.54980902	      6.01324014	    -32.76422788	     21.96723047	      1.42768749	      0.00000000	     30.84538863	     -0.79340129	     -5.54007378	    -16.42904721	      9.34139612	    -10.15095584	      0.00000000	    -11.73797086	     -1.02370901	     -0.33284843
      3.43500000	     -0.61376115	     -0.16437461	     -8.47574514	     -0.74388641	      0.90356402	      0.23833853	     -8.89612311	      2.80587617	      5.15990430	    -34.25154299	     21.13240466	      2.24191274	      0.00000000	     31.06868710	     -0.17862333	     -5.56286377	    -17.41128123	      8.63807765	    -10.23042678	      0.00000000	    -11.51715215	     -1.64403031	     -0.58654682
      3.44000000	     -0.72777282	      0.36559650	     -8.36443520	     -0.73548711	      0.90268112	      0.23770642	     -8.27661611	      2.01166382	      4.29899157	    -35.86814676	     20.18500292	      3.11269896	      0.00000000	     31.34075636	      0.47889657	     -5.46676667	    -18.35290478	      7.76548785	    -10.48564060	      0.00000000	    -11.26595759	     -2.26992431	     -0.81423559
      3.44500000	     -0.84923066	      0.94050648	     -8.21135592	     -0.72709505	      0.90188805	      0.23703609	     -7.58962053	      1.17159402	      3.44198571	    -37.55820935	     19.05826480	      3.88411535	      0.00000000	     31.62376218	      1.19791261	     -5.36480627	    -19.27272124	      6.86925364	    -10.71720400	      0.00000000	    -11.00270584	     -2.94920960	     -1.07100947
      3.45000000	     -0.97707225	      1.56075460	     -8.05168084	     -0.71871640	      0.90114383	      0.23636074	     -6.82863540	      0.27794222	      2.62481587	    -39.33348406	     17.77550776	      4.55497098	      0.00000000	     31.92147959	      1.96833608	     -5.23677313	    -20.19714193	      6.01807905	    -10.97194772	      0.00000000	    -10.72719654	     -3.67954532	     -1.37103505
      3.45500000	     -1.10501491	      2.20265930	     -7.88949449	     -0.71036424	      0.90043870	      0.23567610	     -6.00766120	     -0.64527134	      1.85839657	    -41.17995409	     16.33877776	      5.09737421	      0.00000000	     32.22520601	      2.76970231	     -5.08384404	    -21.12994213	      5.24516280	    -11.27321473	      0.00000000	    -10.45935848	     -4.43592682	     -1.69531946
      3.46000000	     -1.22946654	      2.84492948	     -7.72022545	     -0.70203596	      0.89979231	      0.23500442	     -5.14181697	     -1.57006655	      1.15334318	    -43.07377028	     14.73077850	      5.49996025	      0.00000000	     32.52354074	      3.58366085	     -4.90353815	    -22.06441979	      4.55551064	    -11.63811895	      0.00000000	    -10.19784657	     -5.19213533	     -2.01506982
      3.46500000	     -1.35505655	      3.47284778	     -7.54409469	     -0.69370675	      0.89919979	      0.23429920	     -4.23559428	     -2.48199051	      0.51815401	    -44.99534073	     12.94859804	      5.75860067	      0.00000000	     32.81033816	      4.40107978	     -4.69601552	    -22.98742067	      3.97637945	    -12.07584945	      0.00000000	     -9.94322445	     -5.92831080	     -2.32061910
      3.47000000	     -1.45420847	      4.08215893	     -7.36946287	     -0.68543014	      0.89864833	      0.23364811	     -3.31637242	     -3.36510198	     -0.03484752	    -46.94139823	     11.03843645	      5.80946174	      0.00000000	     33.06419208	      5.20585127	     -4.49653936	    -23.91736229	      3.57864010	    -12.53143243	      0.00000000	     -9.73703727	     -6.65681833	     -2.63612853
      3.47500000	     -1.54530032	      4.66418413	     -7.20609633	     -0.67712353	      0.89815221	      0.23296281	     -2.37591216	     -4.22402182	     -0.52259795	    -48.88024915	      8.97977624	      5.65755447	      0.00000000	     33.28148427	      5.99471805	     -4.29657522	    -24.82412209	      3.35808251	    -13.03212338	      0.00000000	     -9.53374048	     -7.33449222	     -2.94059560
